<?xml version="1.0" encoding="utf-8"?>
<!-- Generator: Adobe Illustrator 16.0.0, SVG Export Plug-In . SVG Version: 6.00 Build 0)  -->
<!DOCTYPE svg PUBLIC "-//W3C//DTD SVG 1.1//EN" "http://www.w3.org/Graphics/SVG/1.1/DTD/svg11.dtd">
<svg version="1.1" id="Capa_1" xmlns="http://www.w3.org/2000/svg" xmlns:xlink="http://www.w3.org/1999/xlink" x="0px" y="0px"
	 width="318px" height="105px" viewBox="0 0 318 105" enable-background="new 0 0 318 105" xml:space="preserve">
<g>
	<g>
		<g>
			<path fill-rule="evenodd" clip-rule="evenodd" d="M49.626,5.338L5.198,31.81v41.231l44.429,26.424V73.037
				c-14.825-1.413-26.243-10.116-26.243-20.635c0-10.524,11.418-19.227,26.243-20.639V5.338z"/>
			<path fill-rule="evenodd" clip-rule="evenodd" d="M53.884,41.422c-8.873,0-16.069,4.916-16.069,10.98
				c0,6.063,7.196,10.977,16.069,10.977c8.867,0,16.063-4.914,16.063-10.977C69.948,46.338,62.751,41.422,53.884,41.422z"/>
			<path fill-rule="evenodd" clip-rule="evenodd" d="M58.401,5.338l44.434,26.472v41.231L58.401,99.465V73.037
				c14.828-1.413,26.244-10.116,26.244-20.635c0-10.524-11.416-19.227-26.244-20.639V5.338z"/>
		</g>
	</g>
	<path fill-rule="evenodd" clip-rule="evenodd" d="M121.649,90.114h1.286v0.449c0,1.011-0.212,1.722-0.632,2.128
		c-0.427,0.406-1.043,0.609-1.845,0.609c-0.862,0-1.515-0.197-1.953-0.59c-0.433-0.391-0.651-1.105-0.651-2.136v-3.946
		c0-1.086,0.233-1.838,0.693-2.256c0.465-0.42,1.115-0.631,1.952-0.631c0.818,0,1.437,0.188,1.833,0.566
		c0.399,0.367,0.603,0.93,0.603,1.683v0.636h0.005h-1.291l0,0v-0.494c0-0.439-0.09-0.77-0.25-0.99
		c-0.168-0.229-0.449-0.343-0.848-0.343c-0.414,0-0.753,0.11-1.014,0.327c-0.263,0.215-0.391,0.604-0.391,1.16v0.429v4.059
		c0,0.551,0.125,0.935,0.367,1.146c0.248,0.215,0.549,0.324,0.902,0.324c0.436,0,0.748-0.152,0.939-0.455
		c0.196-0.302,0.293-0.775,0.293-1.413V90.114L121.649,90.114z M124.364,90.791v-1.777c0-0.943,0.196-1.595,0.585-1.945
		c0.392-0.361,0.911-0.538,1.564-0.538c0.966,0,1.598,0.338,1.898,1.018c0.167,0.386,0.253,0.901,0.253,1.536v1.707
		c0,0.588-0.053,1.033-0.152,1.34c-0.262,0.779-0.918,1.17-1.962,1.17c-0.755,0-1.308-0.177-1.663-0.535
		c-0.346-0.365-0.523-0.934-0.523-1.713V90.791L124.364,90.791z M125.574,90.762v0.213c0,0.488,0.077,0.842,0.231,1.072
		c0.147,0.223,0.392,0.334,0.721,0.334c0.274,0,0.498-0.096,0.665-0.289c0.178-0.193,0.263-0.586,0.263-1.168v-0.162V88.93
		c0-0.597-0.09-0.996-0.267-1.184c-0.183-0.198-0.407-0.296-0.674-0.296c-0.285,0-0.521,0.104-0.691,0.315
		c-0.165,0.204-0.248,0.572-0.248,1.098V90.762L125.574,90.762z M130.018,93.203v-6.576h1.21v0.604
		c0.325-0.468,0.823-0.701,1.515-0.701c0.471,0,0.85,0.132,1.143,0.396c0.29,0.263,0.436,0.722,0.436,1.375v0.448v4.453h-1.208
		v-4.108v-0.337c0-0.498-0.07-0.84-0.216-1.027c-0.146-0.186-0.363-0.28-0.659-0.28c-0.38,0-0.646,0.126-0.793,0.374
		c-0.143,0.251-0.217,0.696-0.217,1.334v4.045H130.018L130.018,93.203z M135.436,91.217l1.209-0.004h-0.006v0.221
		c0,0.631,0.277,0.947,0.828,0.947c0.234,0,0.434-0.065,0.584-0.193c0.156-0.129,0.233-0.33,0.233-0.603
		c0-0.281-0.096-0.515-0.293-0.697c-0.189-0.183-0.466-0.401-0.835-0.651c-0.761-0.52-1.216-0.913-1.354-1.188
		c-0.14-0.271-0.205-0.565-0.205-0.874c0-0.543,0.171-0.951,0.521-1.229c0.347-0.278,0.813-0.415,1.386-0.415
		c0.57,0,1.02,0.12,1.365,0.354c0.342,0.239,0.515,0.692,0.515,1.364v0.275h0.005l-1.21-0.003h-0.005V88.22
		c0-0.269-0.057-0.46-0.183-0.581c-0.113-0.127-0.286-0.188-0.513-0.188c-0.208,0-0.375,0.065-0.502,0.195
		c-0.114,0.124-0.174,0.287-0.174,0.489c0,0.26,0.113,0.491,0.339,0.689c0.219,0.195,0.554,0.45,1.003,0.77
		c0.644,0.445,1.026,0.795,1.155,1.05c0.134,0.251,0.193,0.531,0.193,0.844c0,0.556-0.186,0.999-0.555,1.326
		c-0.373,0.323-0.864,0.487-1.477,0.487c-0.621,0-1.116-0.139-1.483-0.423c-0.363-0.278-0.55-0.769-0.55-1.472v-0.189H135.436
		L135.436,91.217z M141.757,90.293L141.757,90.293v0.903c0,0.507,0.077,0.829,0.241,0.971s0.371,0.214,0.621,0.214
		c0.31,0,0.54-0.079,0.693-0.233c0.152-0.156,0.229-0.444,0.229-0.87v-0.064l1.207,0.004v0.273c0,0.609-0.188,1.066-0.561,1.361
		c-0.379,0.301-0.9,0.449-1.568,0.449c-0.701,0-1.221-0.164-1.561-0.494c-0.346-0.338-0.513-0.918-0.513-1.752v-0.084v-2.076
		c0-0.901,0.182-1.52,0.54-1.855c0.365-0.338,0.896-0.509,1.588-0.509c1.385,0,2.074,0.653,2.074,1.954v1.809h0.003H141.757
		L141.757,90.293z M141.757,89.372h1.79h-0.006v-0.675c0-0.485-0.076-0.817-0.229-0.984c-0.153-0.176-0.373-0.263-0.666-0.263
		c-0.277,0-0.498,0.095-0.648,0.28c-0.159,0.183-0.241,0.507-0.241,0.967V89.372L141.757,89.372z M145.973,93.938v-7.311h1.208v7.24
		v0.59c0,0.486-0.108,0.827-0.325,1.021c-0.214,0.186-0.512,0.279-0.883,0.279c-0.119,0-0.225-0.007-0.332-0.018
		c-0.109-0.016-0.249-0.038-0.425-0.068l0.006-0.829l0.228-0.003h0.059c0.233,0,0.369-0.062,0.407-0.189
		c0.037-0.129,0.058-0.322,0.058-0.576V93.938L145.973,93.938z M145.934,83.686h1.289v1.238h-1.289V83.686L145.934,83.686z
		 M148.425,90.791v-1.777c0-0.943,0.196-1.595,0.586-1.945c0.391-0.361,0.91-0.538,1.563-0.538c0.965,0,1.596,0.338,1.895,1.018
		c0.172,0.386,0.257,0.901,0.257,1.536v1.707c0,0.588-0.053,1.033-0.156,1.34c-0.258,0.779-0.914,1.17-1.963,1.17
		c-0.755,0-1.306-0.177-1.658-0.535c-0.351-0.365-0.522-0.934-0.522-1.713V90.791L148.425,90.791z M149.635,90.762v0.213
		c0,0.488,0.072,0.842,0.227,1.072c0.152,0.223,0.396,0.334,0.728,0.334c0.271,0,0.491-0.096,0.663-0.289
		c0.178-0.193,0.264-0.586,0.264-1.168v-0.162V88.93c0-0.597-0.092-0.996-0.268-1.184c-0.184-0.198-0.408-0.296-0.675-0.296
		c-0.29,0-0.523,0.104-0.688,0.315c-0.168,0.204-0.25,0.572-0.25,1.098V90.762L149.635,90.762z M157.323,83.838h2.029h0.459
		c0.91,0,1.555,0.216,1.928,0.643c0.383,0.426,0.568,1.045,0.568,1.853c0,0.958-0.205,1.66-0.617,2.108
		c-0.407,0.447-1.019,0.671-1.832,0.671h-1.242v4.091h-1.293V83.838L157.323,83.838z M158.616,84.895v3.158h1.052
		c0.478,0,0.822-0.111,1.038-0.335c0.211-0.224,0.315-0.653,0.315-1.289c0-0.531-0.116-0.921-0.339-1.163
		c-0.227-0.246-0.627-0.371-1.213-0.371H158.616L158.616,84.895z M163.478,86.627h1.206v0.852c0.152-0.314,0.354-0.546,0.612-0.691
		c0.255-0.147,0.553-0.234,0.886-0.257v1.208c-0.602,0.018-1.004,0.178-1.201,0.477c-0.197,0.296-0.297,0.756-0.297,1.38v3.608
		h-1.206V86.627L163.478,86.627z M167.162,90.791v-1.777c0-0.943,0.196-1.595,0.585-1.945c0.392-0.361,0.914-0.538,1.563-0.538
		c0.969,0,1.6,0.338,1.901,1.018c0.167,0.386,0.252,0.901,0.252,1.536v1.707c0,0.588-0.052,1.033-0.156,1.34
		c-0.266,0.779-0.914,1.17-1.959,1.17c-0.754,0-1.308-0.177-1.662-0.535c-0.349-0.365-0.523-0.934-0.523-1.713V90.791
		L167.162,90.791z M168.374,90.762v0.213c0,0.488,0.07,0.842,0.229,1.072c0.148,0.223,0.392,0.334,0.723,0.334
		c0.271,0,0.496-0.096,0.664-0.289c0.177-0.193,0.265-0.586,0.265-1.168v-0.162V88.93c0-0.597-0.091-0.996-0.269-1.184
		c-0.181-0.198-0.405-0.296-0.676-0.296c-0.29,0-0.52,0.104-0.688,0.315c-0.166,0.204-0.247,0.572-0.247,1.098V90.762
		L168.374,90.762z M172.625,86.627h0.893v-1.434c0-0.51,0.121-0.889,0.355-1.14c0.244-0.255,0.6-0.381,1.067-0.381
		c0.296,0,0.589,0.023,0.886,0.067l0.005,0.867c-0.131-0.01-0.251-0.014-0.358-0.014c-0.233,0-0.414,0.06-0.549,0.176
		c-0.131,0.107-0.199,0.306-0.199,0.585v1.272h1.006v0.918h-1.006v5.658h-1.207v-5.658h-0.893V86.627L172.625,86.627z
		 M177.975,90.293h-0.006v0.903c0,0.507,0.082,0.829,0.243,0.971c0.169,0.142,0.373,0.214,0.617,0.214
		c0.311,0,0.54-0.079,0.694-0.233c0.158-0.156,0.229-0.444,0.229-0.87v-0.064l1.209,0.004v0.273c0,0.609-0.185,1.066-0.563,1.361
		c-0.371,0.301-0.896,0.449-1.569,0.449c-0.696,0-1.215-0.164-1.56-0.494c-0.339-0.338-0.512-0.918-0.512-1.752v-0.084v-2.076
		c0-0.901,0.182-1.52,0.546-1.855c0.358-0.338,0.89-0.509,1.589-0.509c1.377,0,2.069,0.653,2.069,1.954v1.809h0.005H177.975
		L177.975,90.293z M177.975,89.372h1.783h-0.005v-0.675c0-0.485-0.071-0.817-0.229-0.984c-0.149-0.176-0.367-0.263-0.66-0.263
		c-0.281,0-0.498,0.095-0.654,0.28c-0.154,0.183-0.234,0.507-0.234,0.967V89.372L177.975,89.372z M182.026,91.217l1.209-0.004
		h-0.003v0.221c0,0.631,0.276,0.947,0.825,0.947c0.24,0,0.437-0.065,0.585-0.193c0.158-0.129,0.241-0.33,0.241-0.603
		c0-0.281-0.102-0.515-0.299-0.697c-0.192-0.183-0.469-0.401-0.833-0.651c-0.765-0.52-1.214-0.913-1.358-1.188
		c-0.139-0.271-0.206-0.565-0.206-0.874c0-0.543,0.173-0.951,0.521-1.229c0.349-0.278,0.814-0.415,1.388-0.415
		c0.57,0,1.02,0.12,1.362,0.354c0.345,0.239,0.517,0.692,0.517,1.364v0.275h0.007l-1.211-0.003l0,0V88.22
		c0-0.269-0.062-0.46-0.187-0.581c-0.115-0.127-0.287-0.188-0.513-0.188c-0.21,0-0.377,0.065-0.503,0.195
		c-0.113,0.124-0.175,0.287-0.175,0.489c0,0.26,0.114,0.491,0.34,0.689c0.219,0.195,0.558,0.45,1.003,0.77
		c0.645,0.445,1.022,0.795,1.158,1.05c0.131,0.251,0.191,0.531,0.191,0.844c0,0.556-0.182,0.999-0.556,1.326
		c-0.373,0.323-0.859,0.487-1.477,0.487c-0.623,0-1.116-0.139-1.483-0.423c-0.363-0.278-0.551-0.769-0.551-1.472v-0.189H182.026
		L182.026,91.217z M187.233,86.627h1.213v6.576h-1.213V86.627L187.233,86.627z M187.196,83.686h1.291v1.238h-1.291V83.686
		L187.196,83.686z M189.703,90.791v-1.777c0-0.943,0.191-1.595,0.582-1.945c0.395-0.361,0.915-0.538,1.565-0.538
		c0.967,0,1.597,0.338,1.894,1.018c0.174,0.386,0.254,0.901,0.254,1.536v1.707c0,0.588-0.047,1.033-0.151,1.34
		c-0.264,0.779-0.919,1.17-1.962,1.17c-0.757,0-1.306-0.177-1.661-0.535c-0.348-0.365-0.521-0.934-0.521-1.713V90.791
		L189.703,90.791z M190.907,90.762v0.213c0,0.488,0.078,0.842,0.232,1.072c0.15,0.223,0.396,0.334,0.725,0.334
		c0.273,0,0.494-0.096,0.666-0.289c0.177-0.193,0.262-0.586,0.262-1.168v-0.162V88.93c0-0.597-0.09-0.996-0.269-1.184
		c-0.181-0.198-0.405-0.296-0.673-0.296c-0.292,0-0.522,0.104-0.689,0.315c-0.165,0.204-0.254,0.572-0.254,1.098V90.762
		L190.907,90.762z M195.357,93.203v-6.576h1.21v0.604c0.32-0.468,0.824-0.701,1.507-0.701c0.475,0,0.855,0.132,1.147,0.396
		c0.293,0.263,0.436,0.722,0.436,1.375v0.448v4.453h-1.21v-4.108v-0.337c0-0.498-0.072-0.84-0.215-1.027
		c-0.144-0.186-0.359-0.28-0.66-0.28c-0.376,0-0.642,0.126-0.789,0.374c-0.143,0.251-0.216,0.696-0.216,1.334v4.045H195.357
		L195.357,93.203z M201.026,88.521c0-0.726,0.203-1.24,0.601-1.542c0.41-0.301,0.901-0.448,1.48-0.448
		c0.746,0,1.276,0.163,1.601,0.49c0.322,0.324,0.48,0.821,0.48,1.489v0.268v4.426h-1.207v-0.697
		c-0.213,0.316-0.449,0.527-0.697,0.633c-0.25,0.109-0.521,0.162-0.815,0.162c-0.501,0-0.893-0.151-1.168-0.455
		c-0.274-0.309-0.409-0.77-0.409-1.388c0-0.925,0.226-1.536,0.675-1.833c0.458-0.309,1.238-0.459,2.339-0.459h0.076l0,0v-0.699
		c0-0.281-0.063-0.52-0.183-0.716c-0.112-0.2-0.339-0.301-0.663-0.301c-0.322,0-0.547,0.087-0.67,0.263
		c-0.125,0.167-0.201,0.438-0.229,0.808H201.026L201.026,88.521z M203.981,90.088c-0.063,0-0.128,0-0.191,0
		c-0.546,0-0.961,0.104-1.253,0.313c-0.29,0.209-0.439,0.554-0.439,1.03c0,0.633,0.258,0.949,0.775,0.949
		c0.324,0,0.594-0.117,0.798-0.354c0.204-0.242,0.311-0.713,0.311-1.417V90.088L203.981,90.088z M206.502,93.203v-9.461h1.209v9.461
		H206.502L206.502,93.203z M212.266,83.838h2.033l2.455,7.865h0.004v-7.865h1.209v9.365h-1.979l-2.508-8.051h-0.003v8.051h-1.212
		V83.838L212.266,83.838z M219.514,88.521c0-0.726,0.199-1.24,0.602-1.542c0.408-0.301,0.898-0.448,1.479-0.448
		c0.746,0,1.276,0.163,1.604,0.49c0.318,0.324,0.478,0.821,0.478,1.489v0.268v4.426h-1.205v-0.697
		c-0.216,0.316-0.452,0.527-0.698,0.633c-0.256,0.109-0.521,0.162-0.812,0.162c-0.505,0-0.896-0.151-1.173-0.455
		c-0.273-0.309-0.408-0.77-0.408-1.388c0-0.925,0.226-1.536,0.674-1.833c0.455-0.309,1.24-0.459,2.341-0.459h0.076l0,0v-0.699
		c0-0.281-0.062-0.52-0.181-0.716c-0.12-0.2-0.342-0.301-0.667-0.301c-0.322,0-0.546,0.087-0.669,0.263
		c-0.124,0.167-0.202,0.438-0.229,0.808H219.514L219.514,88.521z M222.47,90.088c-0.062,0-0.13,0-0.192,0
		c-0.545,0-0.965,0.104-1.253,0.313c-0.29,0.209-0.44,0.554-0.44,1.03c0,0.633,0.258,0.949,0.774,0.949
		c0.327,0,0.595-0.117,0.799-0.354c0.206-0.242,0.313-0.713,0.313-1.417V90.088L222.47,90.088z M227.809,91.104l1.209,0.003
		c0,0.052-0.009,0.231-0.022,0.543c-0.012,0.308-0.077,0.587-0.211,0.833c-0.299,0.547-0.876,0.818-1.743,0.818
		c-1.037,0-1.678-0.342-1.922-1.024c-0.115-0.302-0.168-0.737-0.168-1.306v-2.238c0-0.853,0.179-1.434,0.526-1.738
		c0.354-0.31,0.866-0.464,1.534-0.464c0.589,0,1.059,0.14,1.41,0.417c0.351,0.271,0.524,0.766,0.524,1.471v0.309h0.004l-1.204,0.002
		h-0.006v-0.287c0-0.371-0.061-0.623-0.189-0.768c-0.121-0.15-0.287-0.224-0.51-0.224h-0.029c-0.275,0-0.491,0.075-0.639,0.227
		c-0.146,0.154-0.216,0.422-0.216,0.818v2.38c0,0.458,0.011,0.741,0.029,0.844c0.09,0.443,0.353,0.662,0.798,0.662
		c0.288,0,0.494-0.083,0.623-0.256c0.133-0.17,0.201-0.482,0.201-0.941V91.104L227.809,91.104z M230.297,86.627h1.209v6.576h-1.209
		V86.627L230.297,86.627z M230.251,83.686h1.293v1.238h-1.293V83.686L230.251,83.686z M232.758,90.791v-1.777
		c0-0.943,0.197-1.595,0.583-1.945c0.393-0.361,0.915-0.538,1.571-0.538c0.961,0,1.593,0.338,1.894,1.018
		c0.167,0.386,0.253,0.901,0.253,1.536v1.707c0,0.588-0.047,1.033-0.153,1.34c-0.263,0.779-0.917,1.17-1.962,1.17
		c-0.753,0-1.309-0.177-1.66-0.535c-0.348-0.365-0.525-0.934-0.525-1.713V90.791L232.758,90.791z M233.97,90.762v0.213
		c0,0.488,0.075,0.842,0.229,1.072c0.149,0.223,0.391,0.334,0.728,0.334c0.268,0,0.492-0.096,0.663-0.289
		c0.173-0.193,0.26-0.586,0.26-1.168v-0.162V88.93c0-0.597-0.087-0.996-0.268-1.184c-0.179-0.198-0.403-0.296-0.669-0.296
		c-0.293,0-0.522,0.104-0.696,0.315c-0.165,0.204-0.246,0.572-0.246,1.098V90.762L233.97,90.762z M238.417,93.203v-6.576h1.206
		v0.604c0.326-0.468,0.829-0.701,1.511-0.701c0.474,0,0.856,0.132,1.149,0.396c0.288,0.263,0.436,0.722,0.436,1.375v0.448v4.453
		h-1.212v-4.108v-0.337c0-0.498-0.069-0.84-0.214-1.027c-0.143-0.186-0.363-0.28-0.661-0.28c-0.377,0-0.639,0.126-0.795,0.374
		c-0.143,0.251-0.214,0.696-0.214,1.334v4.045H238.417L238.417,93.203z M244.084,88.521c0-0.726,0.203-1.24,0.606-1.542
		c0.405-0.301,0.897-0.448,1.476-0.448c0.748,0,1.277,0.163,1.6,0.49c0.323,0.324,0.481,0.821,0.481,1.489v0.268v4.426h-1.21v-0.697
		c-0.216,0.316-0.443,0.527-0.697,0.633c-0.248,0.109-0.518,0.162-0.809,0.162c-0.503,0-0.896-0.151-1.171-0.455
		c-0.276-0.309-0.413-0.77-0.413-1.388c0-0.925,0.23-1.536,0.678-1.833c0.456-0.309,1.237-0.459,2.341-0.459h0.071l0,0v-0.699
		c0-0.281-0.057-0.52-0.178-0.716c-0.119-0.2-0.339-0.301-0.664-0.301c-0.324,0-0.549,0.087-0.669,0.263
		c-0.129,0.167-0.204,0.438-0.229,0.808H244.084L244.084,88.521z M247.038,90.088c-0.06,0-0.123,0-0.186,0
		c-0.544,0-0.966,0.104-1.258,0.313c-0.286,0.209-0.437,0.554-0.437,1.03c0,0.633,0.258,0.949,0.775,0.949
		c0.324,0,0.593-0.117,0.798-0.354c0.208-0.242,0.307-0.713,0.307-1.417V90.088L247.038,90.088z M249.564,93.203v-9.461h1.21v9.461
		H249.564L249.564,93.203z M258.169,87.123v-3.381h1.211v9.461h-1.211v-0.602c-0.248,0.275-0.485,0.458-0.704,0.557
		c-0.216,0.094-0.463,0.143-0.73,0.143c-0.527,0-0.933-0.185-1.226-0.547c-0.287-0.369-0.43-0.927-0.43-1.676V88.83
		c0-1.534,0.58-2.3,1.737-2.3c0.251,0,0.481,0.042,0.699,0.128C257.729,86.736,257.95,86.889,258.169,87.123L258.169,87.123z
		 M256.29,89.141v1.876c0,0.587,0.083,0.958,0.244,1.124c0.163,0.161,0.377,0.24,0.636,0.24c0.325,0,0.569-0.114,0.74-0.342
		c0.172-0.232,0.26-0.703,0.26-1.411v-1.873c0-0.87-0.301-1.305-0.915-1.305c-0.333,0-0.582,0.118-0.735,0.354
		C256.366,88.034,256.29,88.482,256.29,89.141L256.29,89.141z M261.816,90.293h-0.007v0.903c0,0.507,0.078,0.829,0.239,0.971
		c0.167,0.142,0.379,0.214,0.623,0.214c0.31,0,0.54-0.079,0.693-0.233c0.15-0.156,0.228-0.444,0.228-0.87v-0.064l1.212,0.004v0.273
		c0,0.609-0.191,1.066-0.565,1.361c-0.376,0.301-0.899,0.449-1.567,0.449c-0.7,0-1.223-0.164-1.562-0.494
		c-0.346-0.338-0.51-0.918-0.51-1.752v-0.084v-2.076c0-0.901,0.182-1.52,0.539-1.855c0.364-0.338,0.895-0.509,1.588-0.509
		c1.383,0,2.077,0.653,2.077,1.954v1.809l0,0H261.816L261.816,90.293z M261.816,89.372h1.782h-0.006v-0.675
		c0-0.485-0.077-0.817-0.228-0.984c-0.147-0.176-0.374-0.263-0.666-0.263c-0.278,0-0.497,0.095-0.65,0.28
		c-0.157,0.183-0.232,0.507-0.232,0.967V89.372L261.816,89.372z M269.295,83.838h1.293v9.365h-1.293V83.838L269.295,83.838z
		 M272.099,93.203v-6.576h1.212v0.604c0.323-0.468,0.82-0.701,1.51-0.701c0.474,0,0.85,0.132,1.143,0.396
		c0.293,0.263,0.436,0.722,0.436,1.375v0.448v4.453h-1.209v-4.108v-0.337c0-0.498-0.067-0.84-0.212-1.027
		c-0.147-0.186-0.363-0.28-0.659-0.28c-0.384,0-0.646,0.126-0.795,0.374c-0.144,0.251-0.213,0.696-0.213,1.334v4.045H272.099
		L272.099,93.203z M277.825,93.671h1.043v0.274c0,0.279,0.065,0.501,0.205,0.659c0.14,0.159,0.342,0.235,0.619,0.235
		c0.314,0,0.55-0.072,0.691-0.216c0.152-0.142,0.229-0.411,0.229-0.808V92.49c-0.199,0.266-0.409,0.443-0.625,0.543
		c-0.211,0.096-0.443,0.145-0.717,0.145c-0.512,0-0.918-0.171-1.212-0.515c-0.29-0.353-0.438-1.019-0.438-2.001v-2.309
		c0-0.623,0.152-1.08,0.453-1.375c0.307-0.301,0.699-0.448,1.187-0.448c0.284,0,0.537,0.056,0.767,0.155
		c0.224,0.104,0.426,0.267,0.586,0.489v-0.548h1.213v5.99v1.143c0,1.335-0.704,1.998-2.109,1.998c-0.615,0-1.083-0.15-1.406-0.461
		c-0.323-0.305-0.484-0.794-0.484-1.459V93.671L277.825,93.671z M278.829,90.62v0.425c0,0.507,0.076,0.838,0.23,0.989
		c0.157,0.151,0.348,0.223,0.584,0.223c0.259,0,0.482-0.093,0.674-0.282c0.195-0.191,0.295-0.642,0.295-1.354v-1.829
		c0-0.896-0.31-1.341-0.936-1.341c-0.277,0-0.488,0.098-0.631,0.296c-0.146,0.191-0.217,0.51-0.217,0.957V90.62L278.829,90.62z
		 M284.355,90.293h-0.007v0.903c0,0.507,0.078,0.829,0.24,0.971c0.168,0.142,0.373,0.214,0.623,0.214
		c0.306,0,0.541-0.079,0.692-0.233c0.153-0.156,0.229-0.444,0.229-0.87v-0.064l1.205,0.004v0.273c0,0.609-0.188,1.066-0.559,1.361
		c-0.379,0.301-0.898,0.449-1.568,0.449c-0.699,0-1.221-0.164-1.561-0.494c-0.344-0.338-0.512-0.918-0.512-1.752v-0.084v-2.076
		c0-0.901,0.182-1.52,0.54-1.855c0.364-0.338,0.894-0.509,1.59-0.509c1.381,0,2.069,0.653,2.069,1.954v1.809h0.007H284.355
		L284.355,90.293z M284.355,89.372h1.782h-0.004v-0.675c0-0.485-0.076-0.817-0.229-0.984c-0.151-0.176-0.373-0.263-0.663-0.263
		c-0.279,0-0.498,0.095-0.652,0.28c-0.159,0.183-0.233,0.507-0.233,0.967V89.372L284.355,89.372z M288.565,93.203v-6.576h1.209
		v0.604c0.324-0.468,0.822-0.701,1.508-0.701c0.471,0,0.854,0.132,1.147,0.396c0.291,0.263,0.435,0.722,0.435,1.375v0.448v4.453
		h-1.209v-4.108v-0.337c0-0.498-0.072-0.84-0.218-1.027c-0.143-0.186-0.357-0.28-0.655-0.28c-0.383,0-0.645,0.126-0.791,0.374
		c-0.146,0.251-0.217,0.696-0.217,1.334v4.045H288.565L288.565,93.203z M294.125,86.627h1.205v6.576h-1.205V86.627L294.125,86.627z
		 M294.083,83.686h1.293v1.238h-1.293V83.686L294.083,83.686z M297.777,90.293h-0.005v0.903c0,0.507,0.082,0.829,0.243,0.971
		c0.17,0.142,0.373,0.214,0.618,0.214c0.311,0,0.54-0.079,0.694-0.233c0.152-0.156,0.229-0.444,0.229-0.87v-0.064l1.209,0.004v0.273
		c0,0.609-0.187,1.066-0.566,1.361c-0.373,0.301-0.897,0.449-1.566,0.449c-0.7,0-1.215-0.164-1.56-0.494
		c-0.339-0.338-0.513-0.918-0.513-1.752v-0.084v-2.076c0-0.901,0.182-1.52,0.544-1.855c0.361-0.338,0.892-0.509,1.592-0.509
		c1.374,0,2.069,0.653,2.069,1.954v1.809h0.005H297.777L297.777,90.293z M297.777,89.372h1.784h-0.004v-0.675
		c0-0.485-0.077-0.817-0.229-0.984c-0.149-0.176-0.373-0.263-0.666-0.263c-0.278,0-0.491,0.095-0.648,0.28
		c-0.159,0.183-0.236,0.507-0.236,0.967V89.372L297.777,89.372z M302.021,86.627h1.203v0.852c0.156-0.314,0.354-0.546,0.613-0.691
		c0.255-0.147,0.55-0.234,0.885-0.257v1.208c-0.604,0.018-1.005,0.178-1.2,0.477c-0.196,0.296-0.298,0.756-0.298,1.38v3.608h-1.203
		V86.627L302.021,86.627z M305.989,86.627h1.209v6.576h-1.209V86.627L305.989,86.627z M305.922,85.832l0.73-2.09h1.465l-1.195,2.09
		H305.922L305.922,85.832z M308.918,88.521c0-0.726,0.199-1.24,0.604-1.542c0.405-0.301,0.898-0.448,1.475-0.448
		c0.749,0,1.279,0.163,1.604,0.49c0.319,0.324,0.478,0.821,0.478,1.489v0.268v4.426h-1.21v-0.697
		c-0.211,0.316-0.444,0.527-0.698,0.633c-0.25,0.109-0.519,0.162-0.809,0.162c-0.502,0-0.894-0.151-1.172-0.455
		c-0.271-0.309-0.413-0.77-0.413-1.388c0-0.925,0.233-1.536,0.682-1.833c0.454-0.309,1.238-0.459,2.339-0.459h0.071l0,0v-0.699
		c0-0.281-0.059-0.52-0.176-0.716c-0.119-0.2-0.339-0.301-0.668-0.301c-0.322,0-0.542,0.087-0.667,0.263
		c-0.129,0.167-0.202,0.438-0.23,0.808H308.918L308.918,88.521z M311.869,90.088c-0.059,0-0.123,0-0.188,0
		c-0.545,0-0.965,0.104-1.251,0.313c-0.293,0.209-0.441,0.554-0.441,1.03c0,0.633,0.258,0.949,0.773,0.949
		c0.325,0,0.595-0.117,0.801-0.354c0.207-0.242,0.306-0.713,0.306-1.417V90.088z"/>
	<rect x="117.839" y="96.314" fill-rule="evenodd" clip-rule="evenodd" fill="#FFED00" width="195.269" height="3.252"/>
	<rect x="117.839" y="77.766" fill-rule="evenodd" clip-rule="evenodd" fill="#FECC00" width="195.269" height="3.257"/>
	<path fill-rule="evenodd" clip-rule="evenodd" d="M152.424,70.602c-3.807,1.709-8.357,2.553-13.634,2.553
		c-6.452,0-11.47-1.818-15.073-5.45c-3.591-3.643-5.395-8.708-5.395-15.222c0-6.631,1.814-11.736,5.445-15.313
		c3.615-3.58,8.79-5.36,15.502-5.36c4.291,0,8.547,0.499,12.781,1.517v6.412c-4.798-1.687-8.815-2.53-12.063-2.53
		c-4.148,0-7.34,1.313-9.591,3.947c-2.251,2.635-3.382,6.376-3.382,11.218c0,4.758,1.213,8.467,3.625,11.125
		c2.426,2.662,5.787,3.987,10.087,3.987c3.864,0,7.771-0.97,11.696-2.925V70.602L152.424,70.602z M172.99,73.154
		c-5.968,0-10.745-1.881-14.325-5.641c-3.576-3.76-5.373-8.775-5.373-15.031c0-6.33,1.804-11.363,5.4-15.09
		c3.602-3.723,8.452-5.583,14.569-5.583c6.081,0,10.918,1.86,14.528,5.583c3.604,3.727,5.406,8.734,5.406,15.01
		c0,6.42-1.803,11.488-5.406,15.192C184.179,71.301,179.251,73.154,172.99,73.154L172.99,73.154z M173.099,67.729
		c3.51,0,6.284-1.378,8.337-4.141c2.043-2.761,3.065-6.493,3.065-11.216c0-4.58-1.022-8.247-3.083-11.018
		c-2.052-2.761-4.773-4.147-8.157-4.147c-3.419,0-6.161,1.387-8.204,4.147c-2.047,2.771-3.074,6.467-3.074,11.101
		c0,4.595,1.027,8.292,3.056,11.077C167.083,66.333,169.768,67.729,173.099,67.729L173.099,67.729z M196.745,72.174V32.791h13.717
		c4.785,0,8.204,0.799,10.249,2.407c2.047,1.605,3.076,4.286,3.076,8.048c0,4.258-1.374,7.573-4.114,9.943
		c-2.735,2.363-6.567,3.551-11.495,3.551h-3.401v15.434H196.745L196.745,72.174z M204.776,51.337h1.598
		c2.793,0,5.008-0.653,6.618-1.952c1.63-1.309,2.445-3.078,2.445-5.314c0-3.914-2.497-5.877-7.476-5.877h-3.186V51.337
		L204.776,51.337z M226.326,72.174V32.791h7.202l18.239,26.903V32.791h6.562v39.383h-7.33l-18.101-26.902v26.902H226.326
		L226.326,72.174z M264.355,72.174V32.791h8.184v39.383H264.355L264.355,72.174z M274.284,72.174l15.317-39.383h8.186l15.316,39.383
		h-8.405l-4.09-10.51h-16.269l-4.094,10.51H274.284L274.284,72.174z M286.354,56.424h12.231l-6.117-15.704L286.354,56.424z"/>
	<path fill-rule="evenodd" clip-rule="evenodd" d="M142.192,21.854v-7.829h1.941h0.685c0.708,0,1.231,0.166,1.562,0.505
		c0.332,0.33,0.501,0.813,0.501,1.452c0,0.519-0.105,0.944-0.32,1.276c-0.216,0.331-0.651,0.538-1.321,0.617
		c0.518,0.023,0.876,0.142,1.068,0.351c0.201,0.216,0.3,0.537,0.314,0.973c0.044,1.338,0.153,2.221,0.336,2.655h-1.246
		c-0.157-0.718-0.24-1.534-0.256-2.45c-0.006-0.381-0.104-0.66-0.307-0.834c-0.197-0.176-0.521-0.262-0.985-0.262h-0.799v3.546
		H142.192L142.192,21.854z M143.365,17.422h0.837c0.593,0,0.99-0.102,1.195-0.303c0.211-0.203,0.314-0.566,0.314-1.092
		c0-0.405-0.099-0.693-0.305-0.862c-0.2-0.171-0.584-0.259-1.143-0.259h-0.899V17.422L143.365,17.422z M149.958,21.854v-7.829h3.879
		v0.881h-2.714v2.516h2.548v0.887h-2.548v2.663h2.789v0.883H149.958L149.958,21.854z M156.798,14.025h1.829h0.42
		c0.82,0,1.408,0.18,1.75,0.538c0.345,0.353,0.51,0.87,0.51,1.548c0,0.803-0.182,1.389-0.555,1.762
		c-0.367,0.373-0.923,0.561-1.664,0.561h-1.124v3.421h-1.166V14.025L156.798,14.025z M157.964,14.906v2.641h0.952
		c0.436,0,0.751-0.093,0.941-0.281c0.188-0.188,0.281-0.547,0.281-1.078c0-0.444-0.099-0.768-0.301-0.97
		c-0.205-0.206-0.572-0.312-1.096-0.312H157.964L157.964,14.906z M164.124,14.025h1.17v5.188v0.605c0,0.414,0.108,0.727,0.323,0.93
		c0.216,0.2,0.508,0.302,0.872,0.302c0.387,0,0.693-0.112,0.919-0.33c0.224-0.226,0.335-0.541,0.335-0.947v-0.56v-5.188h1.172v5.283
		v0.493c0,0.766-0.225,1.317-0.672,1.645c-0.439,0.327-1.013,0.487-1.726,0.487c-0.674,0-1.245-0.154-1.708-0.466
		c-0.455-0.309-0.686-0.828-0.686-1.563v-0.596V14.025L164.124,14.025z M165.954,13.244l0.664-1.746h1.324l-1.081,1.746H165.954
		L165.954,13.244z M172.152,21.854v-7.829h2.115c0.933,0,1.579,0.18,1.937,0.538c0.364,0.358,0.547,0.853,0.547,1.488
		c0,0.546-0.121,0.962-0.363,1.249c-0.24,0.289-0.631,0.467-1.178,0.534c0.687,0.038,1.152,0.229,1.396,0.576
		c0.248,0.345,0.369,0.784,0.369,1.319c0,0.645-0.159,1.16-0.475,1.547c-0.316,0.384-0.908,0.577-1.775,0.577h-0.35H172.152
		L172.152,21.854z M173.32,20.972h0.913c0.621,0,1.036-0.116,1.248-0.339c0.217-0.225,0.324-0.578,0.324-1.061
		c0-0.417-0.107-0.736-0.33-0.959c-0.214-0.229-0.63-0.341-1.242-0.341h-0.913V20.972L173.32,20.972z M173.32,17.387h0.879
		c0.539,0,0.905-0.099,1.095-0.297c0.193-0.199,0.287-0.53,0.287-0.989c0-0.36-0.094-0.646-0.289-0.867
		c-0.193-0.214-0.557-0.327-1.093-0.327h-0.879V17.387L173.32,17.387z M179.84,14.025h1.165v6.946h2.525v0.883h-3.69V14.025
		L179.84,14.025z M186.259,14.025h1.172v7.829h-1.172V14.025L186.259,14.025z M194.022,19.271h1.173v0.376
		c0,0.844-0.19,1.438-0.581,1.777c-0.381,0.34-0.935,0.51-1.669,0.51c-0.778,0-1.369-0.164-1.764-0.496
		c-0.394-0.323-0.589-0.919-0.589-1.782v-3.297c0-0.907,0.209-1.536,0.627-1.89c0.422-0.348,1.01-0.525,1.767-0.525
		c0.746,0,1.3,0.158,1.663,0.469c0.362,0.31,0.546,0.783,0.546,1.412v0.529l0,0h-1.167h-0.006v-0.412
		c0-0.363-0.071-0.644-0.224-0.828c-0.149-0.188-0.403-0.283-0.766-0.283c-0.377,0-0.68,0.09-0.918,0.271
		c-0.236,0.179-0.352,0.505-0.352,0.97v0.359v3.395c0,0.457,0.111,0.779,0.331,0.957c0.225,0.178,0.496,0.269,0.818,0.269
		c0.392,0,0.676-0.128,0.851-0.382c0.173-0.251,0.259-0.643,0.259-1.18V19.271L194.022,19.271z M197.997,21.854l1.986-7.829h1.544
		l1.992,7.829h-1.226l-0.42-1.791l0,0h-2.323l0,0l-0.424,1.791H197.997L197.997,21.854z M199.761,19.173v0.008h1.886v-0.008
		l-0.909-4.166h-0.008L199.761,19.173L199.761,19.173z M211.831,21.854v-7.829h2.067c1.01,0,1.728,0.182,2.153,0.547
		c0.431,0.365,0.639,1.012,0.639,1.933v3.028c0,0.877-0.189,1.486-0.577,1.819c-0.384,0.335-0.871,0.502-1.45,0.502h-0.587H211.831
		L211.831,21.854z M212.998,20.972h1.078c0.622,0,1.018-0.129,1.187-0.376c0.175-0.252,0.262-0.682,0.262-1.289v-2.737
		c0-0.724-0.125-1.179-0.362-1.369c-0.244-0.193-0.605-0.294-1.086-0.294h-1.078V20.972L212.998,20.972z M219.796,21.854v-7.829
		h3.879v0.881h-2.713v2.516h2.55v0.887h-2.55v2.663h2.786v0.883H219.796L219.796,21.854z M235.605,19.271h1.167v0.376
		c0,0.844-0.191,1.438-0.573,1.777c-0.388,0.34-0.941,0.51-1.675,0.51c-0.774,0-1.369-0.164-1.766-0.496
		c-0.388-0.323-0.588-0.919-0.588-1.782v-3.297c0-0.907,0.211-1.536,0.627-1.89c0.422-0.348,1.01-0.525,1.764-0.525
		c0.749,0,1.304,0.158,1.666,0.469c0.363,0.31,0.545,0.783,0.545,1.412v0.529h0.005h-1.172l0,0v-0.412
		c0-0.363-0.076-0.644-0.227-0.828c-0.15-0.188-0.405-0.283-0.763-0.283c-0.379,0-0.686,0.09-0.923,0.271
		c-0.234,0.179-0.352,0.505-0.352,0.97v0.359v3.395c0,0.457,0.112,0.779,0.331,0.957c0.226,0.178,0.497,0.269,0.818,0.269
		c0.397,0,0.68-0.128,0.852-0.382c0.178-0.251,0.263-0.643,0.263-1.18V19.271L235.605,19.271z M239.897,19.155v-2.986
		c0-0.856,0.232-1.44,0.703-1.757c0.473-0.311,1.046-0.469,1.731-0.469c0.735,0,1.329,0.174,1.765,0.518
		c0.446,0.348,0.665,0.901,0.665,1.666v0.438v2.894c0,1.052-0.219,1.725-0.665,2.027c-0.436,0.299-1.013,0.447-1.733,0.447
		c-0.829,0-1.446-0.16-1.859-0.477c-0.403-0.315-0.606-0.967-0.606-1.953V19.155L239.897,19.155z M241.069,19.151v0.259
		c0,0.704,0.119,1.153,0.361,1.348c0.248,0.193,0.547,0.292,0.901,0.292c0.339,0,0.636-0.099,0.886-0.297
		c0.248-0.198,0.372-0.636,0.372-1.315v-2.885v-0.233c0-0.599-0.12-0.995-0.364-1.196c-0.238-0.195-0.535-0.293-0.894-0.293
		c-0.33,0-0.623,0.09-0.881,0.271c-0.254,0.179-0.382,0.604-0.382,1.268V19.151L241.069,19.151z M247.874,14.025h1.168v6.946h2.525
		v0.883h-3.693V14.025L247.874,14.025z M254.27,19.155v-2.986c0-0.856,0.234-1.44,0.705-1.757c0.474-0.311,1.046-0.469,1.727-0.469
		c0.739,0,1.328,0.174,1.77,0.518c0.443,0.348,0.659,0.901,0.659,1.666v0.438v2.894c0,1.052-0.216,1.725-0.659,2.027
		c-0.441,0.299-1.021,0.447-1.734,0.447c-0.83,0-1.451-0.16-1.859-0.477c-0.406-0.315-0.607-0.967-0.607-1.953V19.155L254.27,19.155
		z M255.439,19.151v0.259c0,0.704,0.123,1.153,0.366,1.348c0.245,0.193,0.541,0.292,0.896,0.292c0.344,0,0.641-0.099,0.891-0.297
		c0.246-0.198,0.37-0.636,0.37-1.315v-2.885v-0.233c0-0.599-0.124-0.995-0.362-1.196c-0.24-0.195-0.536-0.293-0.898-0.293
		c-0.327,0-0.623,0.09-0.878,0.271c-0.259,0.179-0.385,0.604-0.385,1.268V19.151L255.439,19.151z M262.26,14.025h1.903l1.56,6.207
		h0.009l1.55-6.207h1.902v7.829h-1.095v-6.761h-0.01l-1.779,6.761h-1.157l-1.778-6.761h-0.011v6.761h-1.094V14.025L262.26,14.025z
		 M272.372,21.854v-7.829h2.119c0.933,0,1.578,0.18,1.938,0.538c0.364,0.358,0.545,0.853,0.545,1.488
		c0,0.546-0.12,0.962-0.363,1.249c-0.239,0.289-0.63,0.467-1.177,0.534c0.689,0.038,1.151,0.229,1.396,0.576
		c0.247,0.345,0.369,0.784,0.369,1.319c0,0.645-0.158,1.16-0.474,1.547c-0.315,0.384-0.908,0.577-1.774,0.577h-0.355H272.372
		L272.372,21.854z M273.544,20.972h0.914c0.62,0,1.037-0.116,1.248-0.339c0.214-0.225,0.326-0.578,0.326-1.061
		c0-0.417-0.112-0.736-0.333-0.959c-0.216-0.229-0.631-0.341-1.241-0.341h-0.914V20.972L273.544,20.972z M273.544,17.387h0.878
		c0.541,0,0.903-0.099,1.098-0.297c0.189-0.199,0.287-0.53,0.287-0.989c0-0.36-0.098-0.646-0.293-0.867
		c-0.192-0.214-0.555-0.327-1.092-0.327h-0.878V17.387L273.544,17.387z M280.096,14.025h1.174v7.829h-1.174V14.025L280.096,14.025z
		 M284.071,21.854l1.99-7.829h1.541l1.992,7.829h-1.227l-0.416-1.791l0,0h-2.32l0,0l-0.43,1.791H284.071L284.071,21.854z
		 M285.836,19.173v0.008h1.886v-0.008l-0.903-4.166h-0.014L285.836,19.173z"/>
</g>
<g>
</g>
<g>
</g>
<g>
</g>
<g>
</g>
<g>
</g>
<g>
</g>
<g>
</g>
<g>
</g>
<g>
</g>
<g>
</g>
<g>
</g>
<g>
</g>
<g>
</g>
<g>
</g>
<g>
</g>
</svg>
